<svg width="307" height="228" viewBox="0 0 307 228" fill="none" xmlns="http://www.w3.org/2000/svg">
<g filter="url(#filter0_d_4_1426)">
<rect x="54" y="20" width="199" height="120" rx="15" fill="white"/>
</g>
<path d="M84.752 59.192C83.8987 59.192 83.1093 59.0373 82.384 58.728C81.6693 58.4187 81.04 57.9867 80.496 57.432C79.9627 56.8773 79.5467 56.2267 79.248 55.48C78.9493 54.7333 78.8 53.9173 78.8 53.032C78.8 52.1467 78.944 51.3307 79.232 50.584C79.5307 49.8267 79.9467 49.176 80.48 48.632C81.024 48.0773 81.6587 47.6507 82.384 47.352C83.1093 47.0427 83.8987 46.888 84.752 46.888C85.6053 46.888 86.368 47.032 87.04 47.32C87.7227 47.608 88.2987 47.992 88.768 48.472C89.2373 48.9413 89.5733 49.4587 89.776 50.024L87.824 50.936C87.6 50.3387 87.2213 49.848 86.688 49.464C86.1547 49.0693 85.5093 48.872 84.752 48.872C84.0053 48.872 83.344 49.048 82.768 49.4C82.2027 49.752 81.76 50.2373 81.44 50.856C81.1307 51.4747 80.976 52.2 80.976 53.032C80.976 53.864 81.1307 54.5947 81.44 55.224C81.76 55.8427 82.2027 56.328 82.768 56.68C83.344 57.032 84.0053 57.208 84.752 57.208C85.5093 57.208 86.1547 57.016 86.688 56.632C87.2213 56.2373 87.6 55.7413 87.824 55.144L89.776 56.056C89.5733 56.6213 89.2373 57.144 88.768 57.624C88.2987 58.0933 87.7227 58.472 87.04 58.76C86.368 59.048 85.6053 59.192 84.752 59.192ZM95.4664 59.192C94.613 59.192 93.8344 58.9947 93.1304 58.6C92.437 58.2053 91.8824 57.6667 91.4664 56.984C91.061 56.3013 90.8584 55.5227 90.8584 54.648C90.8584 53.7733 91.061 52.9947 91.4664 52.312C91.8824 51.6293 92.437 51.0907 93.1304 50.696C93.8237 50.3013 94.6024 50.104 95.4664 50.104C96.3197 50.104 97.093 50.3013 97.7864 50.696C98.4797 51.0907 99.029 51.6293 99.4344 52.312C99.8504 52.984 100.058 53.7627 100.058 54.648C100.058 55.5227 99.8504 56.3013 99.4344 56.984C99.0184 57.6667 98.4637 58.2053 97.7704 58.6C97.077 58.9947 96.309 59.192 95.4664 59.192ZM95.4664 57.272C95.9357 57.272 96.3464 57.16 96.6984 56.936C97.061 56.712 97.3437 56.4027 97.5464 56.008C97.7597 55.6027 97.8664 55.1493 97.8664 54.648C97.8664 54.136 97.7597 53.688 97.5464 53.304C97.3437 52.9093 97.061 52.6 96.6984 52.376C96.3464 52.1413 95.9357 52.024 95.4664 52.024C94.9864 52.024 94.565 52.1413 94.2024 52.376C93.8397 52.6 93.5517 52.9093 93.3384 53.304C93.1357 53.688 93.0344 54.136 93.0344 54.648C93.0344 55.1493 93.1357 55.6027 93.3384 56.008C93.5517 56.4027 93.8397 56.712 94.2024 56.936C94.565 57.16 94.9864 57.272 95.4664 57.272ZM104.752 59.192C104.08 59.192 103.493 59.0427 102.992 58.744C102.501 58.4453 102.123 58.0293 101.856 57.496C101.6 56.9627 101.472 56.3387 101.472 55.624V50.296H103.568V55.448C103.568 55.8107 103.637 56.1307 103.776 56.408C103.925 56.6747 104.133 56.888 104.4 57.048C104.677 57.1973 104.987 57.272 105.328 57.272C105.669 57.272 105.973 57.1973 106.24 57.048C106.507 56.888 106.715 56.6693 106.864 56.392C107.013 56.1147 107.088 55.784 107.088 55.4V50.296H109.184V59H107.2V57.288L107.376 57.592C107.173 58.1253 106.837 58.5253 106.368 58.792C105.909 59.0587 105.371 59.192 104.752 59.192ZM111.132 59V50.296H113.1V52.232L112.94 51.944C113.143 51.2933 113.458 50.84 113.884 50.584C114.322 50.328 114.844 50.2 115.452 50.2H115.964V52.056H115.212C114.615 52.056 114.135 52.2427 113.772 52.616C113.41 52.9787 113.228 53.4907 113.228 54.152V59H111.132ZM120.429 59.192C119.501 59.192 118.69 58.9733 117.997 58.536C117.314 58.088 116.845 57.4853 116.589 56.728L118.157 55.976C118.381 56.4667 118.69 56.8507 119.085 57.128C119.49 57.4053 119.938 57.544 120.429 57.544C120.813 57.544 121.117 57.4587 121.341 57.288C121.565 57.1173 121.677 56.8933 121.677 56.616C121.677 56.4453 121.629 56.3067 121.533 56.2C121.447 56.0827 121.325 55.9867 121.165 55.912C121.015 55.8267 120.85 55.7573 120.669 55.704L119.245 55.304C118.509 55.0907 117.949 54.7653 117.565 54.328C117.191 53.8907 117.005 53.3733 117.005 52.776C117.005 52.2427 117.138 51.7787 117.405 51.384C117.682 50.9787 118.061 50.664 118.541 50.44C119.031 50.216 119.591 50.104 120.221 50.104C121.042 50.104 121.767 50.3013 122.397 50.696C123.026 51.0907 123.474 51.6453 123.741 52.36L122.141 53.112C121.991 52.7173 121.741 52.4027 121.389 52.168C121.037 51.9333 120.642 51.816 120.205 51.816C119.853 51.816 119.575 51.896 119.373 52.056C119.17 52.216 119.069 52.424 119.069 52.68C119.069 52.84 119.111 52.9787 119.197 53.096C119.282 53.2133 119.399 53.3093 119.549 53.384C119.709 53.4587 119.89 53.528 120.093 53.592L121.485 54.008C122.199 54.2213 122.749 54.5413 123.133 54.968C123.527 55.3947 123.725 55.9173 123.725 56.536C123.725 57.0587 123.586 57.5227 123.309 57.928C123.031 58.3227 122.647 58.632 122.157 58.856C121.666 59.08 121.09 59.192 120.429 59.192ZM129.463 59.192C128.567 59.192 127.783 58.9893 127.111 58.584C126.439 58.1787 125.917 57.6293 125.543 56.936C125.17 56.2427 124.983 55.4747 124.983 54.632C124.983 53.7573 125.17 52.984 125.543 52.312C125.927 51.6293 126.445 51.0907 127.095 50.696C127.757 50.3013 128.493 50.104 129.303 50.104C129.986 50.104 130.583 50.216 131.095 50.44C131.618 50.664 132.061 50.9733 132.423 51.368C132.786 51.7627 133.063 52.216 133.255 52.728C133.447 53.2293 133.543 53.7733 133.543 54.36C133.543 54.5093 133.533 54.664 133.511 54.824C133.501 54.984 133.474 55.1227 133.431 55.24H126.711V53.64H132.247L131.255 54.392C131.351 53.9013 131.325 53.464 131.175 53.08C131.037 52.696 130.802 52.392 130.471 52.168C130.151 51.944 129.762 51.832 129.303 51.832C128.866 51.832 128.477 51.944 128.135 52.168C127.794 52.3813 127.533 52.7013 127.351 53.128C127.181 53.544 127.117 54.0507 127.159 54.648C127.117 55.1813 127.186 55.656 127.367 56.072C127.559 56.4773 127.837 56.792 128.199 57.016C128.573 57.24 128.999 57.352 129.479 57.352C129.959 57.352 130.365 57.2507 130.695 57.048C131.037 56.8453 131.303 56.5733 131.495 56.232L133.191 57.064C133.021 57.48 132.754 57.848 132.391 58.168C132.029 58.488 131.597 58.7387 131.095 58.92C130.605 59.1013 130.061 59.192 129.463 59.192ZM137.976 59V46.888H140.072V52.008L139.784 51.704C139.987 51.1813 140.317 50.7867 140.776 50.52C141.245 50.2427 141.789 50.104 142.408 50.104C143.048 50.104 143.613 50.2427 144.104 50.52C144.605 50.7973 144.995 51.1867 145.272 51.688C145.549 52.1787 145.688 52.7493 145.688 53.4V59H143.592V53.896C143.592 53.512 143.517 53.1813 143.368 52.904C143.219 52.6267 143.011 52.4133 142.744 52.264C142.488 52.104 142.184 52.024 141.832 52.024C141.491 52.024 141.187 52.104 140.92 52.264C140.653 52.4133 140.445 52.6267 140.296 52.904C140.147 53.1813 140.072 53.512 140.072 53.896V59H137.976ZM151.716 59.192C150.863 59.192 150.084 58.9947 149.38 58.6C148.687 58.2053 148.132 57.6667 147.716 56.984C147.311 56.3013 147.108 55.5227 147.108 54.648C147.108 53.7733 147.311 52.9947 147.716 52.312C148.132 51.6293 148.687 51.0907 149.38 50.696C150.074 50.3013 150.852 50.104 151.716 50.104C152.57 50.104 153.343 50.3013 154.036 50.696C154.73 51.0907 155.279 51.6293 155.684 52.312C156.1 52.984 156.308 53.7627 156.308 54.648C156.308 55.5227 156.1 56.3013 155.684 56.984C155.268 57.6667 154.714 58.2053 154.02 58.6C153.327 58.9947 152.559 59.192 151.716 59.192ZM151.716 57.272C152.186 57.272 152.596 57.16 152.948 56.936C153.311 56.712 153.594 56.4027 153.796 56.008C154.01 55.6027 154.116 55.1493 154.116 54.648C154.116 54.136 154.01 53.688 153.796 53.304C153.594 52.9093 153.311 52.6 152.948 52.376C152.596 52.1413 152.186 52.024 151.716 52.024C151.236 52.024 150.815 52.1413 150.452 52.376C150.09 52.6 149.802 52.9093 149.588 53.304C149.386 53.688 149.284 54.136 149.284 54.648C149.284 55.1493 149.386 55.6027 149.588 56.008C149.802 56.4027 150.09 56.712 150.452 56.936C150.815 57.16 151.236 57.272 151.716 57.272ZM161.002 59.192C160.33 59.192 159.743 59.0427 159.242 58.744C158.751 58.4453 158.373 58.0293 158.106 57.496C157.85 56.9627 157.722 56.3387 157.722 55.624V50.296H159.818V55.448C159.818 55.8107 159.887 56.1307 160.026 56.408C160.175 56.6747 160.383 56.888 160.65 57.048C160.927 57.1973 161.237 57.272 161.578 57.272C161.919 57.272 162.223 57.1973 162.49 57.048C162.757 56.888 162.965 56.6693 163.114 56.392C163.263 56.1147 163.338 55.784 163.338 55.4V50.296H165.434V59H163.45V57.288L163.626 57.592C163.423 58.1253 163.087 58.5253 162.618 58.792C162.159 59.0587 161.621 59.192 161.002 59.192ZM167.382 59V50.296H169.35V52.232L169.19 51.944C169.393 51.2933 169.708 50.84 170.134 50.584C170.572 50.328 171.094 50.2 171.702 50.2H172.214V52.056H171.462C170.865 52.056 170.385 52.2427 170.022 52.616C169.66 52.9787 169.478 53.4907 169.478 54.152V59H167.382ZM176.679 59.192C175.751 59.192 174.94 58.9733 174.247 58.536C173.564 58.088 173.095 57.4853 172.839 56.728L174.407 55.976C174.631 56.4667 174.94 56.8507 175.335 57.128C175.74 57.4053 176.188 57.544 176.679 57.544C177.063 57.544 177.367 57.4587 177.591 57.288C177.815 57.1173 177.927 56.8933 177.927 56.616C177.927 56.4453 177.879 56.3067 177.783 56.2C177.697 56.0827 177.575 55.9867 177.415 55.912C177.265 55.8267 177.1 55.7573 176.919 55.704L175.495 55.304C174.759 55.0907 174.199 54.7653 173.815 54.328C173.441 53.8907 173.255 53.3733 173.255 52.776C173.255 52.2427 173.388 51.7787 173.655 51.384C173.932 50.9787 174.311 50.664 174.791 50.44C175.281 50.216 175.841 50.104 176.471 50.104C177.292 50.104 178.017 50.3013 178.647 50.696C179.276 51.0907 179.724 51.6453 179.991 52.36L178.391 53.112C178.241 52.7173 177.991 52.4027 177.639 52.168C177.287 51.9333 176.892 51.816 176.455 51.816C176.103 51.816 175.825 51.896 175.623 52.056C175.42 52.216 175.319 52.424 175.319 52.68C175.319 52.84 175.361 52.9787 175.447 53.096C175.532 53.2133 175.649 53.3093 175.799 53.384C175.959 53.4587 176.14 53.528 176.343 53.592L177.735 54.008C178.449 54.2213 178.999 54.5413 179.383 54.968C179.777 55.3947 179.975 55.9173 179.975 56.536C179.975 57.0587 179.836 57.5227 179.559 57.928C179.281 58.3227 178.897 58.632 178.407 58.856C177.916 59.08 177.34 59.192 176.679 59.192Z" fill="#83869A"/>
<path d="M84.8 110V85.44H79V80.2H91V110H84.8ZM98.9234 116.6V113.6C99.8568 113.387 100.617 112.973 101.203 112.36C101.817 111.773 102.217 110.987 102.403 110H99.7234V104H105.723V107.48C105.723 110.013 105.15 112.053 104.003 113.6C102.857 115.147 101.163 116.147 98.9234 116.6ZM124.433 110V103.6H111.233V98.4L124.033 80.2H130.633V98.4H135.233V103.6H130.633V110H124.433ZM115.753 100.64L114.593 98.4H124.433V85L125.993 85.48L115.753 100.64ZM148.238 110.48C146.664 110.48 145.144 110.187 143.678 109.6C142.211 108.987 140.958 108.133 139.918 107.04C138.878 105.92 138.198 104.587 137.878 103.04L143.358 101.2C143.758 102.48 144.398 103.413 145.278 104C146.158 104.587 147.144 104.88 148.238 104.88C149.171 104.88 149.984 104.693 150.678 104.32C151.371 103.92 151.904 103.373 152.278 102.68C152.678 101.96 152.878 101.133 152.878 100.2C152.878 99.2667 152.678 98.4533 152.278 97.76C151.904 97.0667 151.371 96.5333 150.678 96.16C149.984 95.76 149.171 95.56 148.238 95.56C147.278 95.56 146.424 95.7733 145.678 96.2C144.931 96.6 144.384 97.2267 144.038 98.08L138.958 96.88L141.358 80.2H157.998V85.4H143.878L146.198 82.6L144.558 95L142.878 93.52C143.544 92.4267 144.384 91.6267 145.398 91.12C146.438 90.6133 147.771 90.36 149.398 90.36C151.398 90.36 153.118 90.7867 154.558 91.64C155.998 92.4667 157.104 93.6133 157.878 95.08C158.678 96.5467 159.078 98.2533 159.078 100.2C159.078 102.147 158.598 103.907 157.638 105.48C156.704 107.027 155.424 108.253 153.798 109.16C152.171 110.04 150.318 110.48 148.238 110.48ZM167.808 110V85.44H162.008V80.2H174.008V110H167.808Z" fill="#13183F"/>
<defs>
<filter id="filter0_d_4_1426" x="0" y="0" width="307" height="228" filterUnits="userSpaceOnUse" color-interpolation-filters="sRGB">
<feFlood flood-opacity="0" result="BackgroundImageFix"/>
<feColorMatrix in="SourceAlpha" type="matrix" values="0 0 0 0 0 0 0 0 0 0 0 0 0 0 0 0 0 0 127 0" result="hardAlpha"/>
<feOffset dy="34"/>
<feGaussianBlur stdDeviation="27"/>
<feColorMatrix type="matrix" values="0 0 0 0 0.0241629 0 0 0 0 0.0843621 0 0 0 0 0.553916 0 0 0 0.158854 0"/>
<feBlend mode="normal" in2="BackgroundImageFix" result="effect1_dropShadow_4_1426"/>
<feBlend mode="normal" in="SourceGraphic" in2="effect1_dropShadow_4_1426" result="shape"/>
</filter>
</defs>
</svg>
