<svg width="88" height="56" viewBox="0 0 88 56" fill="none" xmlns="http://www.w3.org/2000/svg">
<rect x="32" width="56" height="56" rx="28" fill="url(#paint0_linear_4_1616)"/>
<path fill-rule="evenodd" clip-rule="evenodd" d="M58 28C56.9 28 56 28.9 56 30C56 31.1 56.9 32 58 32C59.1 32 60 31.1 60 30C60 28.9 59.1 28 58 28ZM54 24C52.9 24 52 24.9 52 26C52 27.1 52.9 28 54 28C55.1 28 56 27.1 56 26C56 24.9 55.1 24 54 24ZM54 32C52.9 32 52 32.9 52 34C52 35.1 52.9 36 54 36C55.1 36 56 35.1 56 34C56 32.9 55.1 32 54 32ZM66 24C67.1 24 68 23.1 68 22C68 20.9 67.1 20 66 20C64.9 20 64 20.9 64 22C64 23.1 64.9 24 66 24ZM62 32C60.9 32 60 32.9 60 34C60 35.1 60.9 36 62 36C63.1 36 64 35.1 64 34C64 32.9 63.1 32 62 32ZM66 28C64.9 28 64 28.9 64 30C64 31.1 64.9 32 66 32C67.1 32 68 31.1 68 30C68 28.9 67.1 28 66 28ZM62 24C60.9 24 60 24.9 60 26C60 27.1 60.9 28 62 28C63.1 28 64 27.1 64 26C64 24.9 63.1 24 62 24ZM58 20C56.9 20 56 20.9 56 22C56 23.1 56.9 24 58 24C59.1 24 60 23.1 60 22C60 20.9 59.1 20 58 20Z" fill="white"/>
<defs>
<linearGradient id="paint0_linear_4_1616" x1="32" y1="0" x2="32" y2="56" gradientUnits="userSpaceOnUse">
<stop stop-color="#FF6F48"/>
<stop offset="1" stop-color="#F02AA6"/>
</linearGradient>
</defs>
</svg>
