<svg width="88" height="56" viewBox="0 0 88 56" fill="none" xmlns="http://www.w3.org/2000/svg">
<rect x="32" width="56" height="56" rx="28" fill="url(#paint0_linear_4_1563)"/>
<path fill-rule="evenodd" clip-rule="evenodd" d="M67 19H53C51.9 19 51 19.9 51 21V35C51 36.1 51.9 37 53 37H67C68.1 37 69 36.1 69 35V21C69 19.9 68.1 19 67 19ZM67 35L60 27V35H53L60 27V21H67V35Z" fill="white"/>
<mask id="mask0_4_1563" style="mask-type:luminance" maskUnits="userSpaceOnUse" x="51" y="19" width="18" height="18">
<path fill-rule="evenodd" clip-rule="evenodd" d="M67 19H53C51.9 19 51 19.9 51 21V35C51 36.1 51.9 37 53 37H67C68.1 37 69 36.1 69 35V21C69 19.9 68.1 19 67 19ZM67 35L60 27V35H53L60 27V21H67V35Z" fill="white"/>
</mask>
<g mask="url(#mask0_4_1563)">
</g>
<defs>
<linearGradient id="paint0_linear_4_1563" x1="32" y1="0" x2="32" y2="56" gradientUnits="userSpaceOnUse">
<stop stop-color="#FF6F48"/>
<stop offset="1" stop-color="#F02AA6"/>
</linearGradient>
</defs>
</svg>
