<svg width="88" height="56" viewBox="0 0 88 56" fill="none" xmlns="http://www.w3.org/2000/svg">
<rect x="32" width="56" height="56" rx="28" fill="url(#paint0_linear_4_1551)"/>
<path fill-rule="evenodd" clip-rule="evenodd" d="M66.5919 18.7159C66.5792 19.4681 66.2504 20.1802 65.6861 20.6777C64.8765 21.297 63.7864 21.4056 62.8705 20.9582C61.9546 20.5108 61.3701 19.5843 61.3609 18.565C61.3775 17.8243 61.6844 17.1198 62.2154 16.6031C62.6889 16.2279 63.2713 16.0163 63.8753 16C64.5965 15.9972 65.289 16.2824 65.7991 16.7923C66.3092 17.3022 66.5946 17.9947 66.5919 18.7159ZM56.8879 21.1902C56.9144 21.1739 56.9338 21.1619 56.9338 21.1306L56.9285 21.1276C58.7118 20.8279 60.5428 21.2047 62.0629 22.1843C62.3921 22.3497 62.7112 22.5344 63.0185 22.7376C63.0942 22.7501 63.1644 22.7851 63.22 22.838H63.1702C63.1444 22.8635 63.1315 22.8761 63.1188 22.8889C63.1062 22.9014 63.0938 22.9141 63.0691 22.9392C64.1415 23.6417 65.4786 23.8087 66.6908 23.3913H66.7413C66.7413 23.3598 66.7606 23.3479 66.7874 23.3314C66.8036 23.3214 66.8226 23.3097 66.8417 23.2909C67.6665 22.9561 68.369 22.3769 68.8549 21.631C68.8934 21.5549 68.9453 21.4864 69.0081 21.4287C70.1147 20.5743 71.9761 21.8318 71.0198 23.0894C70.6351 23.6647 70.1788 24.1887 69.6618 24.6489C67.9894 26.0977 65.6846 26.5741 63.5749 25.9072C62.6698 27.4667 61.8146 29.0261 60.9586 30.6354C61.3119 30.8362 61.6636 31.0378 61.9656 31.2393L61.8652 31.3397C62.7733 31.9443 63.676 32.6486 64.2293 33.1022C64.9762 33.6551 65.8461 35.5906 66.5268 37.105C66.717 37.5282 66.8925 37.9186 67.0463 38.2367C67.3213 38.7107 67.2382 39.3111 66.8448 39.6927C66.5182 39.9553 66.0907 40.0569 65.6809 39.9692C65.271 39.8815 64.9225 39.6138 64.732 39.2406C64.6198 38.997 64.492 38.7103 64.3543 38.4015C63.7513 37.0486 62.9601 35.2735 62.469 34.8648C61.1983 33.8526 59.7926 33.0226 58.2925 32.3988C58.2691 32.3988 58.2324 32.3867 58.1951 32.3744C58.1566 32.3618 58.1174 32.3489 58.0918 32.3489C55.9925 34.9659 52.3028 35.6695 49.3878 34.0088C48.9544 33.7444 48.6977 33.2663 48.7168 32.759C48.7359 32.2516 49.0277 31.7942 49.4797 31.5631C49.9318 31.3319 50.4734 31.3631 50.8959 31.6447C53.211 32.9528 55.5744 31.2424 56.6817 29.079C57.7385 26.9632 58.5439 25.4573 59.3991 23.8978C57.6879 23.3438 56.1284 23.8457 54.8716 25.6083C53.9153 27.016 51.5511 25.6581 52.5565 24.2496C52.9569 23.6863 53.4121 23.1639 53.9153 22.6901C54.7488 21.9745 55.7547 21.489 56.8334 21.2816V21.231C56.8524 21.212 56.8715 21.2003 56.8879 21.1902Z" fill="white"/>
<defs>
<linearGradient id="paint0_linear_4_1551" x1="32" y1="0" x2="32" y2="56" gradientUnits="userSpaceOnUse">
<stop stop-color="#FF6F48"/>
<stop offset="1" stop-color="#F02AA6"/>
</linearGradient>
</defs>
</svg>
